#N canvas 582 190 1144 607 12;
#N canvas 0 23 450 278 (subpatch) 0;
#X array array1 64 float 0;
#X coords 0 1 63 0 400 400 1 0 0;
#X restore 407 44 graph;
#X obj 888 134 uzi 64, f 10;
#X obj 888 48 bng 32 250 50 0 empty empty empty 17 7 0 10 -256903 -1
-1;
#X obj 955 184 tabread array1;
#X msg 969 284 clear;
#X obj 955 209 cyclone/sprintf %.6f;
#X obj 242 377 vsl 30 118 0.25 4 1 0 empty empty slope 3 9 0 10 -258010
-1 -1 9900 1;
#N canvas 1263 23 615 939 shaper 0;
#X msg 406 503 0;
#X obj 382 479 sel 1;
#X obj 99 233 samplerate~;
#X obj 53 190 bng 15 250 50 0 empty empty empty 0 -6 0 8 -262144 -1
-1;
#X obj 99 207 loadbang;
#X msg 440 411 1;
#X obj 334 430 env~, f 8;
#X obj 362 456 >= 93;
#X obj 107 20 inlet;
#X obj 130 160 t b b f, f 10;
#X obj 262 19 inlet;
#X obj 268 77 t b f;
#X obj 378 15 inlet;
#X obj 384 73 t b f;
#X obj 61 786 tabwrite~ array1;
#X obj 436 536 switch~ 64 1 1;
#X obj 99 259 / 64, f 8;
#X obj 96 749 clip~ 0 1;
#X obj 467 87 uzi 64, f 10;
#X obj 499 245 tabwrite array1;
#X obj 528 163 t f f;
#X obj 505 206 / 64;
#X obj 533 124 - 1;
#X obj 459 17 inlet;
#N canvas 1355 23 545 807 shaper 0;
#X obj 95 749 outlet~;
#X obj 82 26 inlet freq;
#X obj 361 28 inlet;
#X obj 450 27 inlet;
#X obj 103 163 phasor~;
#X obj 96 724 clip~ 0 2;
#X obj 371 277 f;
#X obj 111 488 pow~;
#X obj 174 247 nbx 5 14 -1e+37 1e+37 0 0 empty empty empty 0 -8 0 10
-262144 -1 -1 2.61102 256;
#X obj 173 211 * 1;
#X obj 232 338 *~;
#X obj 370 318 nbx 5 14 -1e+37 1e+37 0 0 empty empty empty 0 -8 0 10
-262144 -1 -1 0.230769 256;
#X obj 253 267 phasor~;
#X obj 260 196 *;
#X obj 109 72 nbx 5 14 -1e+37 1e+37 0 0 empty empty empty 0 -8 0 10
-262144 -1 -1 689.062 256;
#X obj 268 225 nbx 5 14 -1e+37 1e+37 0 0 empty empty empty 0 -8 0 10
-262144 -1 -1 6890.62 256;
#X obj 110 563 +~;
#X obj 107 607 atan~;
#X obj 262 25 inlet phase;
#X obj 175 25 inlet slope;
#X obj 100 316 +~;
#X obj 121 673 *~ 1.16;
#X connect 1 0 14 0;
#X connect 2 0 13 1;
#X connect 3 0 6 0;
#X connect 4 0 20 0;
#X connect 5 0 0 0;
#X connect 6 0 11 0;
#X connect 6 0 10 1;
#X connect 7 0 16 0;
#X connect 9 0 7 1;
#X connect 9 0 8 0;
#X connect 10 0 16 1;
#X connect 12 0 10 0;
#X connect 13 0 12 0;
#X connect 13 0 15 0;
#X connect 14 0 13 0;
#X connect 14 0 4 0;
#X connect 16 0 17 0;
#X connect 17 0 21 0;
#X connect 18 0 4 1;
#X connect 19 0 9 0;
#X connect 20 0 7 0;
#X connect 21 0 5 0;
#X restore 119 341 pd shaper;
#X obj 140 136 f;
#X obj 195 19 inlet;
#X obj 201 77 t b f;
#X connect 0 0 15 0;
#X connect 1 0 0 0;
#X connect 2 0 16 0;
#X connect 3 0 2 0;
#X connect 3 0 14 0;
#X connect 4 0 2 0;
#X connect 5 0 15 0;
#X connect 6 0 7 0;
#X connect 7 0 1 0;
#X connect 8 0 25 0;
#X connect 9 0 3 0;
#X connect 9 1 5 0;
#X connect 9 2 24 1;
#X connect 10 0 11 0;
#X connect 11 0 25 0;
#X connect 11 1 24 3;
#X connect 12 0 13 0;
#X connect 13 0 25 0;
#X connect 13 1 24 4;
#X connect 16 0 24 0;
#X connect 17 0 14 0;
#X connect 18 2 22 0;
#X connect 20 0 21 0;
#X connect 20 1 19 1;
#X connect 21 0 19 0;
#X connect 22 0 20 0;
#X connect 23 0 18 0;
#X connect 24 0 6 0;
#X connect 24 0 17 0;
#X connect 25 0 9 0;
#X connect 26 0 27 0;
#X connect 27 0 25 0;
#X connect 27 1 24 2;
#X restore 270 512 pd shaper;
#X obj 302 377 vsl 30 118 0.1 10 0 0 empty empty mod 3 9 0 10 -260999
-1 -1 11700 1;
#X obj 332 377 vsl 30 118 0 0.25 0 0 empty empty mod 3 9 0 10 -260097
-1 -1 10800 1;
#X obj 52 411 dac~;
#X floatatom 89 85 5 0 0 0 speed - -;
#X obj 89 133 phasor~;
#X obj 61 329 tgl 22 0 empty empty empty 17 7 0 10 -261682 -1 -1 1
1;
#X obj 70 356 * 0.02;
#X obj 52 382 *~;
#X obj 86 285 vsl 32 40 0 0.1 0 0 empty empty empty 0 -9 0 10 -261682
-1 -1 3900 1;
#X obj 86 333 t b f;
#X floatatom 52 207 5 0 0 0 freq1 - -;
#X obj 89 180 tabread4~ array1;
#X obj 340 511 bng 32 250 50 0 empty empty Reset 37 16 0 10 -262144
-1 -1;
#X obj 921 354 text define -k liste;
#A set usr1 \; 64 \; 0.053911 \; 0.063382 \; 0.073491 \; 0.084228 \;
0.095582 \; 0.107545 \; 0.120107 \; 0.133259 \; 0.146993 \; 0.161297
\; 0.176161 \; 0.191573 \; 0.20752 \; 0.223989 \; 0.240963 \; 0.258428
\; 0.276366 \; 0.294758 \; 0.313585 \; 0.332826 \; 0.352459 \; 0.372461
\; 0.392807 \; 0.413473 \; 0.203639 \; 0.227107 \; 0.250983 \; 0.275239
\; 0.299844 \; 0.324766 \; 0.349971 \; 0.375424 \; 0.401088 \; 0.426928
\; 0.452905 \; 0.478982 \; 0.505121 \; 0.531285 \; 0.557434 \; 0.583535
\; 0.609549 \; 0.635443 \; 0.661183 \; 0.686737 \; 0.712075 \; 0.737168
\; 0.761991 \; 0.786517 \; 0.810725 \; 0.834595 \; 0.858107 \; 0.881245
\; 0.903996 \; 0.926346 \; 0.804967 \; 0.831156 \; 0.85685 \; 0.882035
\; 0.9067 \; 0.930834 \; 0.954432 \; 0.977488 \; 1 \; 0.077377 \;;
#X msg 921 325 write -c ./curve.txt;
#X obj 955 234 text insert liste 1000;
#X obj 955 159 expr $i1 - 1;
#X msg 853 217 usr1;
#X obj 821 191 t b b;
#X obj 853 242 symbol;
#X obj 821 268 text insert liste 1;
#X msg 1033 549 \; pd dsp 1;
#X obj 1033 530 loadbang, f 9;
#X msg 821 217 64;
#N canvas 0 23 438 477 simplefm 0;
#X obj 88 332 +~;
#X obj 83 56 inlet~;
#X obj 192 50 inlet~;
#X obj 276 62 inlet~;
#X obj 87 408 outlet~;
#X obj 90 377 osc~;
#X obj 161 118 *~;
#X obj 138 301 *~;
#X obj 223 198 *~;
#X obj 144 221 osc~;
#X text 182 30 harmo ratio;
#X text 274 39 modulation index;
#X text 82 34 carrier freq;
#X connect 0 0 5 0;
#X connect 1 0 0 0;
#X connect 1 0 6 0;
#X connect 2 0 6 1;
#X connect 3 0 8 1;
#X connect 5 0 4 0;
#X connect 6 0 8 0;
#X connect 6 0 9 0;
#X connect 7 0 0 1;
#X connect 8 0 7 1;
#X connect 9 0 7 0;
#X restore 52 257 pd simplefm;
#X obj 52 229 sig~;
#X floatatom 125 207 5 0 0 1 freq2 - -;
#X obj 126 229 sig~;
#X obj 89 109 * 0.01;
#X obj 272 377 vsl 30 118 0.01 1 1 0 empty empty phase 3 9 0 10 -261715
-1 -1 0 1;
#X obj 814 530 bng 32 250 50 0 empty empty empty 17 7 0 10 -257619
-1 -1;
#X obj 987 505 array define buff1;
#N canvas 0 23 450 300 load 0;
#X obj 124 25 inlet;
#X obj 129 57 openpanel;
#X obj 151 164 soundfiler;
#X obj 126 261 array set array1, f 12;
#X obj 126 235 array get buff1;
#X msg 127 211 2;
#X msg 131 88 read -ascii \$1 buff1;
#X obj 116 132 t b a;
#X connect 0 0 1 0;
#X connect 1 0 6 0;
#X connect 4 0 3 0;
#X connect 5 0 4 0;
#X connect 6 0 7 0;
#X connect 7 0 5 0;
#X connect 7 1 2 0;
#X restore 814 567 pd load;
#X obj 89 157 *~ 63;
#X obj 888 85 t b b b b;
#X obj 1021 96 bng 32 250 50 0 empty empty Normalize 37 16 0 10 -262144
-1 -1;
#N canvas 0 23 505 706 normalizer 0;
#X obj 34 95 inlet;
#X obj 101 237 list-normalize;
#X obj 101 189 tabread array1;
#X obj 101 213 cyclone/thresh 50;
#X obj 34 141 uzi 64, f 10;
#X obj 101 166 expr $i1 - 1;
#X obj 101 349 tabwrite array1;
#X obj 101 259 list-drip;
#X obj 203 324 i;
#X obj 232 324 + 1;
#X obj 34 118 t b b, f 10;
#X obj 101 284 t i b;
#X msg 221 300 0;
#X obj 101 318 clip 0 1;
#X connect 0 0 10 0;
#X connect 1 0 7 0;
#X connect 2 0 3 0;
#X connect 3 0 1 0;
#X connect 4 2 5 0;
#X connect 5 0 2 0;
#X connect 7 0 11 0;
#X connect 8 0 9 0;
#X connect 8 0 6 1;
#X connect 9 0 8 1;
#X connect 10 0 4 0;
#X connect 10 1 12 0;
#X connect 11 0 13 0;
#X connect 11 1 8 0;
#X connect 12 0 8 1;
#X connect 13 0 6 0;
#X restore 1021 132 pd normalizer;
#X obj 888 110 delay 100;
#X text 857 20 2 Save file;
#X text 778 504 3 reload file from here;
#X text 15 17 listen to simple fm with the enveloppe;
#X text 930 43 Then rename file curve.txt;
#X text 931 57 to usr(1 to 4).txt;
#X text 239 351 or draw on array1;
#X text 394 435 0;
#X text 811 26 1;
#X text 239 334 1 Play with this;
#X connect 1 1 22 0;
#X connect 1 2 24 0;
#X connect 2 0 42 0;
#X connect 3 0 5 0;
#X connect 4 0 21 0;
#X connect 5 0 23 0;
#X connect 6 0 7 0;
#X connect 8 0 7 2;
#X connect 9 0 7 3;
#X connect 11 0 36 0;
#X connect 12 0 41 0;
#X connect 13 0 14 0;
#X connect 14 0 15 1;
#X connect 15 0 10 0;
#X connect 15 0 10 1;
#X connect 16 0 17 0;
#X connect 17 0 14 0;
#X connect 17 1 14 1;
#X connect 18 0 33 0;
#X connect 19 0 32 1;
#X connect 20 0 7 4;
#X connect 22 0 21 0;
#X connect 24 0 3 0;
#X connect 25 0 27 0;
#X connect 26 0 31 0;
#X connect 26 1 25 0;
#X connect 27 0 28 0;
#X connect 30 0 29 0;
#X connect 31 0 28 0;
#X connect 32 0 15 0;
#X connect 33 0 32 0;
#X connect 34 0 35 0;
#X connect 35 0 32 2;
#X connect 36 0 12 0;
#X connect 37 0 7 1;
#X connect 38 0 40 0;
#X connect 41 0 19 0;
#X connect 42 0 45 0;
#X connect 42 1 26 0;
#X connect 42 2 4 0;
#X connect 42 3 44 0;
#X connect 43 0 44 0;
#X connect 45 0 1 0;
